P2
# lon0   0.00000
# lat0   0.00000
# pixsiz     0.000
# gain   0.00166993181
# offset  19.66983222961
          33          33       65535
         198         198         198         198         198         198         198         198         198         198         198         198         198         198         198         198         198         198         198         198         198         198         198         198         198         198         198         198         198         198         198         198         198         198         198         198         198         198         198         198         198         198         198         198         198         198         198         629         198         798         279         198         198         198         198         198         198         198         198         198         198         198         198         198         198         198         198         198         198         198         198         198         198         198         198         198         198         548         117         198         842         534        3633         869        1559         899         198         198         445         198         198         198         198         198         198         198         198         198         198         198         198         198         198         198         198         198         198         198         589         523         855        1620        2772        3301        7183       11984        8566        8860        6330        4159         929         484         262         198         198         198         198         198         198         198         198         198         198         198         198         198         198         198         198         198         502        1911        3109           0        1285        2141        6992       11809       14179       16596       13024        9630        9177        8517        2913         399         198         198         198         198         198         198         198         198         198         198         198         198         198         198         198         198         276       12975       11838        7484        6528       12924        8010        5391       10219       16802       17854       19319       13167        8861        5198        2270        4142        1534        2666         198         198         198         198         198         198         198         198         198         198         198         198        4256        1505        3214       11869        7375       19849       18393       12549        5692       11118       14830       10728       16371       15776       10569       10888        4695        2821        3335        1317        4834         198         198         198         198         198         198         198         198         198         198         198         198         605        5973       12558       12840       13976        9817       18801       13344       22486       13807       16695       10062       11749        7599        8799        9628       15798        7941       26923       16453        6776         198         198         198         198         198         198         198         198         198         198         198        1505       14443       12739       30029       27147       12064       13737       14086        7284       16387       17845       13240       15205       17438       18694       16912       10955       21470       26304       23832       19375       15119         198         198         198         198         198         198         198         198         198         198         198        7557       12723       17544       19076       11739       20642        9753       12487       19461        8301       12554       19625       24407       37345       24590       15943       20737       23583       21739       29915       33431       29332       37992         198         198         198         198         198         198         198         198         198        7211       21942       27506       29312       17150       14349       12269        6697        8232       15244        8731       11652       12275       15706       14452       17386       18148       20832       19212       27127       23529       36711        7263         198         198         198         198         198         198         198         198         198         198       11753       20145       28898       33283       27725       16345       11820        9044       14153       10592       13620       12800       18124       31821       18789       22893       17577       16196       18023       28135       31322        7327        6668         198         198         198         198         198         198         198         198         198        1632       14127       23311       46167       40881       23367       26043       13250       13040        9589       14739       17852       14087       12456       26450       30520       26106       13201       11754        5607       18490        2194        1831         198         198         198         198         198         198         198         198         198         198        2041        9503       20404       22573       33642       31441       24574       12304       15255        6845       12891       16235       11831        8693       15731       17358       27046       22587       20873       15549       20278       26251        1831        1105         198         198         198         198         198         198         198         198         198         198         198       15856       33965       28584       20867       13981       23046        8715       14818       16483       14101       12542        7503        8438       22973       22717       20683       19469       20454       22218       28643       16589        1468         198         198         198         198         198         198         198         198         198         198         198       17746       30233       19102       16720       15971       17500       14888       16445       18460       11903       16078       11117        9741       21870       23008       24058       18929       13687       13948       26881       38243        1468         198         198         198         198         198         198         198         198         198         198         198         198       12817       25421       28166       21475        8732       19015       12724       12303       14265       11268       12806       12749       23340       21514       20596       19092       14161       10582        6689       23543        8824         198         198         198         198         198         198         198         198         198         198         198         198         198       28377        4992       11544       11720       16703       13627       13979       12825        8719       12403       14596       22993       12994       25864       17021        8745        7930        7101        6303        1468         198         198         198         198         198         198         198         198         198         198         198         198         198         198       10914       15764       16580       12195       12871       19621        7667       11131        7130       13720       17765       16056       19557       27552       17488       11040        8325        8052        2992         198       12022         198         198         198         198         198         198         198         198         198         198         198        3702       37570       22544       15422        9625       14932        8455       10072       12629       13599        7825       10905       19048       11927       15574       21385       13241       10780       10245        3537         198       13615         198         198         198         198         198         198         198         198         198         198         198       20502       40598       43159       20564       28811       10233       10139       10113        6657       14615       10365       12988       12354       14415        8125       14611       17482       19615       20539         198       18165       17538         198         198         198         198         198         198         198         198         198         198         198         198       11929       33129       40689       32279       16600        9673        6221       12381       13603       13424       21875       17254       12575        8774        8074        8080       17214       19374       27991       38413       26712       14517         198         198         198         198         198         198         198         198         198         198         198         198       65535       45389       20680       23841       22434        5587       13014        5603       15994       21485       10624       21701       19815       12078        8089        5697       15264       16390       11998       27636       19416        3613         198         198         198         198         198         198         198         198         198         198         198       62016       32181       36755       28140       13848       12944        9387       10732       12557       21354       24016       22846       26687       28436       13656        8381        6047       11325        4448        7652        7878        1932         881         198         198         198         198         198         198         198         198         198         198         198       41329       46744       37545       15680       28773        6592       16712       35084       17890       15095       19180       23855       39498       33113       21337        7881        5853        7265        2407        1066        2197        2277         198         198         198         198         198         198         198         198         198       19063       37288       57874       45985       53777       34833       19846       12977       17578       25164       21762       20096       29546       38164       37033       31346       20763       12444        7769        9623        2188         198         731         198         198         198         198         198         198         198         198         198         198        3524         198       39950       43513       45345       34053       28372       19095       23274       27925       22946       18328       24614       23662       30855       25782       18854        9202        5035         581        1692         635         198         198         198         198         198         198         198         198         198         198         198         198       16118       26208       33588       25752       18074       20196       11349       17052       15531       13837       14745       11696       13546       19303       19120        9369        5433         109         713         118         751         198         198         198         198         198         198         198         198         198         198         198         198         198        7957       26279       31815       11704        9575       18036       16201       14599        7355        8852       10999       14900        6015       12552        1833        2514         107         656         198         198         198         198         198         198         198         198         198         198         198         198         198         496        2430        1674        2916        4880       12622       10937        8304       25079       17975       13472        7359        6432        3732        1173         208        2469         300         614        2056         198         198         198         198         198         198         198         198         198         198         198         198         198         198         198        2765        2795        2830         853        1474        2649        1111        1523        3290         357         511         829         669         392         285        1050         675         198         198         198         198         198         198         198         198         198         198         198         198         198         198         198         198        2485        2236        2512        1296         618        1896        1634        4092        1822        1484        1392         551         812         198         869         198         198         198         198         198         198         198         198         198         198         198         198         198         198         198         198         198         198         198        2844        2157        2438         986        1998        2485        1418        1657        1020        1015         435         600         628         198         198         198         198         198         198         198         198         198         198
