P2
# lon0   0.00000
# lat0   0.00000
# pixsiz     0.000
# gain   0.00173557212
# offset  39.09834671021
          33          33       65535
           0           0           0           0           0           0           0           0           0           0           0           0           0           0           0           0           0           0           0           0           0           0           0           0           0           0           0           0           0           0           0           0           0           0           0           0           0           0           0           0           0           0           0           0           0           0           0       21845           0       20480       24576           0           0           0           0           0           0           0           0           0           0           0           0           0           0           0           0           0           0           0           0           0           0           0           0           0           0        5461       38229       32767       31402       36863       36863       39594       38229       50517       46421       32767       38229           0           0           0           0           0           0           0           0           0           0           0           0           0           0           0           0           0           0           0       27306       31402       25486       24966       27458       25941       38973       34257       36739       28975       35043       25746       32312       47786       49151           0           0           0           0           0           0           0           0           0           0           0           0           0           0           0           0       10923       24576       28672       33071       25444       26991       31087       29400       23574       41414       33405       34952       29302       32557           0       18811       31857           0           0           0           0           0           0           0           0           0           0           0           0           0           0           0           0       23210       30947       28423       28462       34497       33860       30840       28190           0       29394       31723       30438       29555       39321       34042       29407       26189           0           0           0           0           0           0           0           0           0           0           0           0           0           0       43690       28672       22820       27803       26571       29855       31001       27737       24576       32911       27306       23426       26588       29103       39666       36648       36542       33041       32767           0           0           0           0           0           0           0           0           0           0           0           0           0           0       32767       34133       31650       24667       31322       37908       30324       24511       29269       24771       31597       26526       28672       29354       31146       40894       39953       36783       34936       33678           0           0           0           0           0           0           0           0           0           0           0           0       28672       39399       31278       29764       28431       29318       31258       30208       28444       28477       20480       24121       33336       21617       20138       32475       43235       39082       32121       21126       27708           0           0           0           0           0           0           0           0           0           0           0       15018       34588       33264       36023       33812       27666       27019       31500       26429       47445       29081       25827           0       36295       28558       34360       31402       38456       38424       34815           0           0           0           0           0           0           0           0           0           0           0           0           0       40959       36560       38334       33587       31563       26300       33353       27501       21959       28785       31266       32085       36454       22528       23620       27852       39184       33223       23210           0       10045           0           0           0           0           0           0           0           0           0           0           0       30037       36863       35870       32130       30117       29534       26794       25161       28103       25713       27989       26214       27716       25941       22118       27306       34542       34269       42052       31971           0           0           0           0           0           0           0           0           0           0           0           0           0       16384       36473       34448       28945       25941       27761       26624       29809       22073       33041       27136       30993       31812       31948       33723       24166       32767       40959       41471           0       19911           0           0           0           0           0           0           0           0           0           0           0           0       35498       21693       31087       22487       29821       31914       28769       30173       27170       28535       34952       30720       29866       30549       36351       38058       39423       30856       39594       30310       19661       17613           0           0           0           0           0           0           0           0           0           0           0           0           0       27761       22487       30971       28574       28103       26851       29900       27716       30446       23210       27477       22528       27989       27818       29525       24917       33177       39184       22801       22641           0           0           0           0           0           0           0           0           0           0           0           0           0       20116       11003       28959       25941       26965       24689       20480       29764       24030       28672       35669       30310       31266       23210       26624       38058       29081       23347       29491       20707           0           0           0           0           0           0           0           0           0           0           0           0           0           0           0       12000       19114       20138       27875       31675       27170       29081       30890       25429       26077       23893       30583       30720       33109       33723       24303       27033       24576           0           0           0           0           0           0           0           0           0           0           0           0           0           0           0       19617       23503       24348       34247       26897       27852       23893       33450       15701       17476       26351       29900       27648       31744       24985       37273       25395       24803           0           0           0           0           0           0           0           0           0           0           0           0           0           0           0           0           0       18887       20821       22528       27579           0           0        8704       29354       24405       30208       28330       27648       26897       32494       24576       19569           0           0           0       20640           0           0           0           0           0           0           0           0           0           0           0       21198       27989       32767       30173       23210       29218       21572       24303       20138           0       27989       22357       28842       30173       29491       32631       37546       23210           0           0           0       27868           0           0           0           0           0           0           0           0           0           0           0       24791       27696       31857           0       29582       30583       24405       24849       24985           0           0           0           0       32221       29696       31266       33109       31061       20707           0       28672       35771           0           0           0           0           0           0           0           0           0           0           0           0           0       30634       26331       25372       34360       39867       22255       27716       25531       28535       34406       38911       28945       28535       28330       31744       35986       39509       34205       43770       32221       35126           0           0           0           0           0           0           0           0           0           0           0           0       23426           0       21943       25486       38115       19524       25804           0       24712       24849       29900       30720       29582       29013       28574       25843       32767       42646       31584       40854       42780       34133           0           0           0           0           0           0           0           0           0           0           0       21558       31115           0       22333       23893       21845       23779       31516       28558       32767       30378       29218       27989       29159       29744       28097       33271       34213       50517       32023       43235           0           0           0           0           0           0           0           0           0           0           0           0           0       28887       21414       22016       31175           0       20366       27875       25486       27875       34247       28769       29013       25850       25869       24863       24576       32312       32892       46031       36863           0           0           0           0           0           0           0           0           0           0           0       14770       17658       24094       24094       25869       23080       27562       28184       26429       27501       31110       31890       29184       28932       25438       32928       28752       22027       20107       29062       25941           0           0           0           0           0           0           0           0           0           0           0           0           0           0       20690       22937       25856       26157       31690       26372       22995       30755       29175       33342       29175       23857       26342       36408       23735       23831       23990       31402           0           0           0           0           0           0           0           0           0           0           0           0           0           0       25161       21349       24366       26123       22027       25700       24254       25298       25780       29314       32125       29957       26305       32221       26361       31650       26136           0           0           0           0           0           0           0           0           0           0           0           0           0           0           0           0           0           0       27155       30782       32137       24996       32950       28672       29764       34133       31038       29722       24891       34381       22148       33223       16384           0           0           0           0           0           0           0           0           0           0           0           0           0           0           0       21845       21845       20480       23210       29582       33353       30037       30189       32892       32643       26189       31554       23817       28672       28672       40959        8192           0           0           0           0           0           0           0           0           0           0           0           0           0           0           0           0           0           0       28672       31402       43690       25941       17749       27306       36863       30037       28672       23210       21845       21845       17749           0           0           0           0           0           0           0           0           0           0           0           0           0           0           0           0           0           0           0           0       39594       34133       65535       38229       42325       38229       30037       38229       19114       21845       30037       13653           0           0           0           0           0           0           0           0           0           0           0           0           0           0           0           0           0           0           0           0           0           0        4096       38229       27306       31402       34133       43690       16384        9557       23210           0           0           0           0           0           0           0           0           0           0           0           0           0           0
