P2
# lon0   0.00000
# lat0   0.00000
# pixsiz     0.000
# gain   0.00203679642
# offset   0.00000000000
          33          33       65535
           0           0           0           0           0           0           0           0           0           0           0           0           0           0           0           0           0           0           0           0           0           0           0           0           0           0           0           0           0           0           0           0           0           0           0           0           0           0           0           0           0           0           0           0           0           0           0           0           0           0           0           0           0           0           0           0           0           0           0           0           0           0           0           0           0           0           0           0           0           0           0           0           0           0           0           0           0           0           0           0           0           0           0           0           0           0           0           0           0           0           0           0           0           0           0           0           0           0           0           0           0           0           0           0           0           0           0           0           0           0       33209       49151       42968       48948       48305       49113       51993       52749       57983       46947       49407       48068           0           0           0           0           0           0           0           0           0           0           0           0           0           0           0           0           0           0           0       34696       37688       41493       41771       43144       42465       50392       46108       49730       46305       45702       44072       46984       55275           0           0           0           0           0           0           0           0           0           0           0           0           0           0           0           0           0           0       43829       43548       43268       42481       44779       43314       46466       39799       48800       47564       46539       48058       47856       43956       47267       42400           0           0           0           0           0           0           0           0           0           0           0           0           0           0           0           0       45503       46060       40932       44881       46387       47445       46576       45069           0       43865       46272       45953       45254       49587       45487       48381       42135       29764           0           0           0           0           0           0           0           0           0           0           0           0           0       41351       49129       41173       43099       42833       42828       47433       43807       41260       47302       41871       41616       41991       43014       53781       50246       52495       48039       44841           0           0           0           0           0           0           0           0           0           0           0           0           0           0       48353       48525       46745       40028       46254       49403       45663       42256       44552       43379       44635       42980       42406       47054       47033       54503       51745       53110       47769           0           0           0           0           0           0           0           0           0           0           0           0           0       40280       53037       48105       44089       44637       44074       45937       44422       41847       44616       36400       42226       46319       39756       38183       43712       55691       56041       44025       40378       45354           0           0           0           0           0           0           0           0           0           0           0           0       52212       46199       47551       46091       40886       42629       46765       47315       57325       43024       41470       37582       45612       41552       47810       50590       51541       51050       50877           0       24671           0           0           0           0           0           0           0           0           0           0           0       46416       51560       51746       50301       46121       41140       47903       45203       40023       48003       45962       46090       45600       39885       43283       42445           0       49498       45704       46543       28727           0           0           0           0           0           0           0           0           0           0           0       36152       48769       49083       45698       46425       45034       42038       39826       41474       40568       43547       41894       40973       44752       36600       39511       45378       50553       50388       43704           0           0           0           0           0           0           0           0           0           0           0           0           0       42698       50869       47325       44481       44053       41922       41066       44027       37698       42267       42255       43063       45759       43453       40252       41372       44418       54038       50498           0       34683           0           0           0           0           0           0           0           0           0           0           0           0       45338       41221       48094       41757       40042       42918       43806       44488       40731       43021       48496       45905       44653       43761       46432           0       51560       46583       51865           0       39198           0           0           0           0           0           0           0           0           0           0           0           0           0           0       41323       40246       45507       45837       42549       43429       41612       43351       46783       41655       41955       37721       43143       43477       46330       43856       47602       49984       37184       38212           0           0           0           0           0           0           0           0           0           0           0           0           0       37345       30127       40617       39712       42758       41483       35551       43447       41170       42529       48614       44068       42599       40266       39317       48923       44638       40250           0       35832           0           0           0           0           0           0           0           0           0           0           0           0           0           0           0       33480       37075       39915       42158       43813       42156       40453       43486       43286       41092       42028       44902       44449       48535       47062       37308       44776       39328           0           0           0           0           0           0           0           0           0           0           0           0           0           0           0       30229       37441       39916       42085       40357       42554       42525       46482       35625       35202       42059       44892       45407       46753       41429       47460       44543       39523       35022           0           0           0           0           0           0           0           0           0           0           0           0           0           0           0           0       37587       41268       42611       41360           0           0       29738       39059       40344       46168       46947       48470       43642       45911       42565       36902           0           0           0           0           0           0           0           0           0           0           0           0           0           0           0           0       42575       43697       44081       38495       47064       43289       39096       34765           0       42174       40778       43658       44981       44904       48133       53750       35908           0           0           0       43126           0           0           0           0           0           0           0           0           0           0           0       37267       44474       46489       46700       42153       43265       44079       40864       38716           0           0           0           0       47124       45156       45904       50342       46836       31092           0           0       51387           0           0           0           0           0           0           0           0           0           0           0           0           0       44665       40602       40804       46666       47100       41368       42978       38241       41630       50663       44810       44546       42949       44610       45965       49824       52717           0       53992       46990           0           0           0           0           0           0           0           0           0           0           0           0           0       39188       46537       38058       44151       51763       37356       42688       42466       38789       44666       49008       44186       44291       42861       43762       42400       47485       53857       47952       49798       51283       51545           0           0           0           0           0           0           0           0           0           0           0       39979       46289           0       36393       42140       36760       40995       46220       46838       43697       45679       46186       45117       44615       45430       43789       46527       50114       59173       49671       65535           0           0           0           0           0           0           0           0           0           0           0           0           0       43015       33958       40474       43951           0       35291       43905       40257       44732       45450       45776       43182       42297       41919       39873       42799       47104       55494       57085       51474           0           0           0           0           0           0           0           0           0           0           0       30886       42191       42014       40422       40022       40211       43564       43513       40417       40981       43220       45297       43210       44654       41142       45217       43491       38332       39268       44175       51037           0           0           0           0           0           0           0           0           0           0           0           0           0           0       40775           0       41041       41204       41051       42472       39404       45788       45645       46115       43885       39935       41751       50258       42104       39461       42462       47251           0           0           0           0           0           0           0           0           0           0           0           0           0           0       41554       40842       38925       41143       37747       44370       38143       39447       41471       44427       45490       45637       42805       45113       43499       46381       37016       41079           0           0           0           0           0           0           0           0           0           0           0           0           0           0           0           0       44367       47568       44246       41368       40180       44290       44917       44650       46303       46196       44996       40087       49772       44439       45182       38116           0           0           0           0           0           0           0           0           0           0           0           0           0           0       31227           0           0           0       37332       40095       41234       43272       46494       48376       45737       44238       45532       40075       40966       42892       47504       43044           0           0           0           0           0           0           0           0           0           0           0           0           0           0           0           0           0           0       49174       40730       48413       45151       42529       42326       49978       45560       39984       38233       36166       42050       48530       42063           0           0           0           0           0           0           0           0           0           0           0           0           0           0           0           0           0           0           0       45214       49704       51153       46278       47649       46820       45958       45964       44718       41966       37377       34745           0           0           0           0           0           0           0           0           0           0           0           0
