P2
# lon0   0.00000
# lat0   0.00000
# pixsiz     0.000
# gain   0.00000598151
# offset   1.04290056229
          33          33       65535
           0           0           0           0           0           0           0           0           0           0           0           0           0           0           0           0           0           0           0           0           0           0           0           0           0           0           0           0           0           0           0           0           0           0           0           0           0           0           0           0           0           0           0           0           0           0       55705       55705           0       52428       62258       37683       58982           0           0           0           0           0           0           0           0           0           0           0           0           0           0           0           0           0           0           0           0           0           0           0       52428       55705       63897       65535       52428       58982       34406       52428       47513       52428       65535       65535       60620           0           0           0           0           0           0           0           0           0           0           0           0           0           0           0           0           0           0           0       57343       58982       59528       60386       62804       55705       52875       48109       53024       49515       54977       56173       59528       58982       65535       45875           0           0           0           0           0           0           0           0           0           0           0           0           0           0           0       65535       58982       55159       58435       63897       62888       62888       54940       50134       49370       55268       55049       55957       57973       52726       62076       60620       39321       37683           0           0           0           0           0           0           0           0           0           0           0           0           0       57343       62258       42598       53917       58729       56579       52756       55705       57054       50886       53681       59367       53681       58114       55595       60511       61880       57641       43066       58982       63897           0           0           0           0           0           0           0           0           0           0           0       31129       47513       56173       57343       58729       58217       56572       54497       62740       59930       56998       56998       57602       58205       55532       58895       60234       61494       61124       52130           0           0       52428           0           0           0           0           0           0           0           0           0       42598       57343       55471       55407       51336       57536       55223       49065       53442       46898       47162       46109       54417       53832       56290       54783       57499       54411       55416       47609       48824           0           0       62258       57343           0           0           0           0           0           0           0           0       47513       43534       51534       48277       45585       54756       50445       48639       58708       52662       43553       48742       46148       42734       39321       46577       53793       45055       42511       42339       50308       42270           0           0       55705           0       44236           0           0           0           0           0       65535       40413       49747       54949       55030       54670       55877       57577       61439       60173       56688       55841       57480       51199       32494       43417       46694       45328       43300       44938       53463       57429           0           0       42449       45875       49151       60620           0           0           0           0           0       11469       40777       40455       48387       46742       53204       54183       60620       57207       53247       53739       50298       51445       44400       45874       50626       51773       58299       49151       51492       54768       59068       58307           0           0           0           0       52428       54066           0           0           0       65535       31675       38725       43908       50019       46478       55807       59801       57616       47786       46858       46202       59145       47677       36863       46530       48168       56524       58818       45738       50243       43768       43724       38028           0           0       45577           0       54066       65535           0           0           0       45875       43534       44488       37027       51997       49463       44100       54066       53657       55213       51814       52428       61931       52428       37846       39976       38993       53739       47103       48987       45738       45328       46148       47123           0           0           0           0           0       52428       49151           0           0       44236       50608       47765       56572       47599       50892       53013       57015       44728       59473       45055       46694       57753       54271       41779       46489       40959       48168       44236       50953       40304       41942       47162       34815           0           0           0           0           0           0       50790           0           0       52428       47149       48168       46838       47858       51726       56934       50517       57998       50462       43089       49356       53042       56729       53247       34201       41164       40959       48332       45383       43253       42188       58845       58396       55101       42983           0           0           0           0       36044           0       47513           0       51534       51991       42405       51738       50439       57889       51336       53247       42762       39976       52018       56729       59145       53575       39321       36659       45465       52756       61439       52756       42461       62122       54417       52514       41827           0           0           0           0           0           0           0           0       54662       60074       40767       55101       41661       45328       53247       48332       52592       56360       53862       57138       52920       49151       39157       38707       49151       52592       47513       56688       58299       54476       61790       48893       48862       50462           0           0           0           0           0           0           0       48109       39212       52717       48375       59098       62258       59391       47841       52100       57671       49356       54271       52920       44728       40140       50790       42188       49970       57179       56360       60756       61576       54300       46995       54066       52646       52875           0           0           0           0           0           0           0       35607           0       54842       55120       50380       49834       49643       55213       52428       51609       46694       55500       41983       42803       45670       45465       38338       47513       50790       54612       58026       57109       54756       53488       42488       38957       40959           0           0           0           0           0           0           0       53970       60706       42291       42832       42598       53575       56852       57835       54886       48742       57753       61234       55500       47513       56032       48004       46530       51281       52756       44704       58981       53635       53874       54949           0       54066           0           0           0           0           0           0           0       58217       50876       43456       33860       46284       45465       52264       54271       54066       57998       47513       42270       51117       57343       51936       57753       52428       53793       50380       43144       53286       51738       49916       54696           0       13107           0           0           0           0           0           0           0       54612       45200       36389       41471       42832       35089       52974       57671       57835       54394       44891       50953       44564       49970       48987       54230       58572       56660       55939       53862       52514       42116       44564       47960       53520           0           0           0           0           0           0           0           0           0       45765       45393       33112       40959       47864       50107       52428       60784       51445       47513       43908       48004       52756       40140       44646       51336       54417       59098       57429       54645       54066       43102       44782       34406           0           0           0           0           0           0           0           0       51832       49529       42983       33544       46306       40725       45523       54339       57015       52564       52564       55841       48878       44919       34897       39184       40491       49736       57688       62862       62933       60494       54811       38775           0           0           0           0           0           0       65535           0           0       49151       47364       43035       32189       41908       41304       40652       48059       56056       54612       43827       36454       52974       51199       48800       44646       40140       50962       50358       56283       56032       52726       59216       62258           0           0           0           0           0           0       58982           0           0       39321       52428       44534       38775       33538       38261       37424       49229       56524       55471       45874       45991       51492       56407       52326       42676       45012       51753       58307       56579       51683       44002       29491           0           0           0           0           0           0           0       40959       16384       65535       45875       27852       44236       36938       34028       40304       42309       53290       62258       51566       51738       50100       56222       59499       49065       44495       43754       56579       61250       57998       59450       57343           0           0           0           0           0           0           0           0           0       57343       57343       57343       65535       40959       42364       36342       44992       56688       58217       58692       52042       53392       56958       54645       58114       52621       48605       50899       60116       56003       49151       65535           0           0           0           0           0           0           0           0           0           0       47513       26214       55705       45875       47513       21299       44236       39867       48555       59864       53058       49479       43908       53629       59637       54503       53940       49403       60471       60620       58982       26214           0           0           0           0           0           0           0           0           0           0           0           0           0           0       57343       58982       40959       45875       32768       48059       48449       49515       50243       35300       48258       48407       58435       52974       58747       61166       63897       24576           0           0           0           0           0           0           0           0           0           0           0           0           0           0           0       57343       60620       60620       39321       39321       40959       65535       47513       27852       45875       47513       47513       63897       58982       49151       63897       55705           0           0           0           0           0           0           0           0           0           0           0           0           0           0           0           0           0           0       60620       44236       44236       52428       60620       63897       36044       54066       65535       42598       62258       42598       55705           0           0           0           0           0           0           0           0           0           0           0           0           0           0           0           0           0           0           0           0           0       22937       47513       57343       44236       55705       32768       34406       60620       45875       50790           0           0           0           0           0           0           0           0           0           0           0           0           0           0
