P2
# lon0   0.00000
# lat0   0.00000
# pixsiz     0.000
# gain   0.00002507044
# offset   0.00000000000
          33          33       65535
           0           0           0           0           0           0           0           0           0           0           0           0           0           0           0           0           0           0           0           0           0           0           0           0           0           0           0           0           0           0           0           0           0           0           0           0           0           0           0           0           0           0           0           0           0           0           0           0           0           0           0           0           0           0           0           0           0           0           0           0           0           0           0           0           0           0           0           0           0           0           0           0           0           0           0           0           0           0           0           0           0           0       56255       58171       55027           0           0           0           0           0           0           0           0           0           0           0           0           0           0           0           0           0           0           0           0           0           0           0           0           0       58110       59260       59959       59513       57160       54902       55895       57174       57495       58229       58017       59247           0           0           0           0           0           0           0           0           0           0           0           0           0           0           0           0           0           0           0       56885       59304       60280       60598       59325       58224       56064       53727       53779       54815       55275       56955       58399       59074       58678           0           0           0           0           0           0           0           0           0           0           0           0           0           0           0           0           0       53760       55470       59337       60522       59364       58437       56920       54442       53048       55035       55511       55224       56757       56927       59150       58129       60731       56203           0           0           0           0           0           0           0           0           0           0           0           0           0           0       56210       54194       57806       58985       61708       61594       60187       56613       53200       53262       55791       56431       55879       56997       58913       58333       59106       57093       58911           0           0           0           0           0           0           0           0           0           0           0           0       53503       52992       54718       55121       56192       57254       60149       60886       59569       56727       56704       57401       56349       58349       57380       55976       57391       57651       57661       55675           0       60520       61441           0           0           0           0           0           0           0           0           0           0       55939       53343       55600       54292       55969       54824       55747       58099       55621       53962       53722       54970       54872       55268       55164       55772       56070       55638       54689       56618       54309           0       56987       55147           0           0           0           0           0           0           0           0       53287       52468       57353       54934       52404       55442       53092       53896       55071       55529       54126       52629       52569       52383       52105       53008       54933       52721       52070       51035       53152       51548           0           0       54568           0       53367           0           0           0           0           0       57506       51730       53080       57491       56223       54237       55564       58742       57760       58184       57232       57472       57586       56748       52854       51546       52626       53075       51774       52080       54764       58207           0           0           0       55539       60921       59564           0           0           0           0           0       55242       51430       52316       53646       52956       55370       57292       55918       57225       58509       54665       56524       54519       51675       52373       53129       54264       54286       52584       53234       57551       59463       60963           0           0           0           0       62145       58027           0           0           0       54833       51851       49502       56463       56292       52361       56955       57113       54968       53247       52813       53613       58693       53027       51010       52643       55134       55474       55117       53036       52529       53657       55229       56656           0           0       59231           0       57377       60436           0           0           0       54439       51871       53628       53000       54853       61490       58565       55144       56618       56376       55117       55392       57407       54068       50152       51704       51247       53827       52809       52519       52241       52769       55488           0       54835           0           0           0           0       55358           0           0           0       53292       53579       52054       54835       57727       56668       55750       55963       55795       58255       52464       53237       56364       55152       51198       52076       51282       53665       52461       53240       52410       51138       54107       53842           0           0           0           0           0       55190       53926           0           0       55682       54991       52965       57514       53538       55138       59322       58870       63255       55034       51872       53374       56601       56621       53812       50807       51888       52007       53030       52337       50804       52192       54393       57528           0       57849           0           0           0           0       50962           0       65535           0       56632       58385       53726       53534       55928       55787       57942       56062       52463       52962       54488       57097       57619       53534       50714       50576       52524       54116       55534       53825       53923       57091       58978       59186       53746           0           0           0           0           0           0           0           0       56349       59120       52801       56140       52235       53120       53709       58129       60326       56099       54862       55480       54776       53613       51450       50723       53055       54266       53891       54609       57044       56810       56587       57523       52127       54744           0           0           0           0           0           0           0       56815       57942       59710       55236       55288       56787       56178       56521       55849       55855       54606       55253       54011       53342       52538       53712       52255       54157       55915       55763       57002       58454       55705       53522       56995       54506       54368           0           0           0           0           0           0           0           0           0       55930       55273       54413       55578       53726       54994       55051       54044       52764       55239       53080       51099       52780       52643       52085       53355       53544       56482       58863       57778       55086       53936       52267       51744       56502           0           0           0           0           0           0       57214       56038       57682       53038       51514       51724       54285       54765       54864       54097       53240       55700       55242       55889       58381       54043       52035       52818       52421       55323       53765       58400       56475       57723       54405           0       55546           0           0           0           0           0           0           0       60900       54878       51645       50302       52725       53140       53969       54983       54517       55609       54047       53675       55874       55045       54088       55424       54037       54206       53731       51441       56396       55369       54708       58194           0           0           0           0           0           0           0           0           0       57964       54731       50758       51164       53100       52339       55499       55231       55055       54673       52326       52690       53595       55964       53285       54410       55811       55183       54892       53496       54431       51397       52298       53388       55626           0           0           0           0           0           0           0           0           0       53153       52618       49786       51560       53130       55235       57047       56187       54393       53175       53709       52532       54495       53442       52925       54410       55145       55254       55280       58772       54370       51740       52798       52463           0           0           0           0           0           0           0           0       59630       54870       53402       49091       52068       52434       55771       56683       56064       55905       55060       54517       55812       53063       51895       51126       52057       53836       55530       57255       59409       58627       54424       52115           0           0           0           0           0           0       58350           0           0       56986       59020       52369       49644       51794       52765       51128       52958       54827       55411       54310       50930       53087       52942       53342       53096       51011       53851       54166       56181       57266       56366       55700       55519           0           0           0           0           0           0       56205           0           0       55163       55807       52081       50175       49816       50468       50563       53414       54555       59493       54662       53280       54960       56052       55990       52887       52374       54110       54527       54589       53217       51339       53295           0           0           0           0           0           0           0       54897       58425       63229       56655       54647       52592       50174       49999       51562       52614       54539       56697       58770       57499       57278       55398       56173       55873       53556       52238       55587       57539       58417       57137       55734           0           0           0           0           0           0           0           0       51731       54888       58425       61187       57258       52903       50997       49384       51273       55303       57846       57473       55034       55901       57006       59330       56320       55427       53028       53189       55862       56014       54463       55859           0           0           0           0           0           0           0           0           0           0       57959       54171       57386       57745       51874       51375       52420       51483       55329       57492       55200       54771       52735       57880       61481       58231       55802       53454       55824       57061       56959       54329           0           0           0           0           0           0           0           0           0           0           0       56552           0           0       54254       54197       51045       52180       51324       53865       53693       54887       53831       51448       54941       55579       58000       55203       54949       56914       57113       54718           0           0           0           0           0           0           0           0           0           0           0           0           0           0           0       54149       55781       53386       50800       49867       53992       54109       52191       52385       51856       53115       52271       58939       54447       56723       57259       53421           0           0           0           0           0           0           0           0           0           0           0           0           0           0           0           0           0       53202       54673       52317       50664       52580       56047       56402       53685       53444       53434       55084       56444       54214       57372           0           0           0           0           0           0           0           0           0           0           0           0
